<svg id="Layer_1" data-name="Layer 1" xmlns="http://www.w3.org/2000/svg" viewBox="0 0 215.84 249.18"><defs><style>.cls-1{font-size:50.35px;fill:#2e6187;}.cls-1,.cls-3{font-family:Stellar-Regular, Stellar;}.cls-2{letter-spacing:-0.03em;}.cls-3{font-size:12.25px;fill:#e88238;}.cls-4{letter-spacing:-0.01em;}.cls-5{letter-spacing:-0.02em;}.cls-6{letter-spacing:-0.04em;}.cls-7{letter-spacing:-0.01em;}.cls-8{fill:#e78744;}.cls-9{fill:#42698e;}.cls-10{fill:#67a595;}.cls-11{fill:#7db5a5;}.cls-12{fill:#ea9358;}.cls-13{fill:#25486f;}</style></defs><title>logo-small</title><text class="cls-1" transform="translate(55.38 139.17)">B<tspan class="cls-2" x="28.14" y="0">L</tspan><tspan x="47.48" y="0">OC</tspan></text><text class="cls-3" transform="translate(57.38 156.73)">I<tspan class="cls-4" x="2.83" y="0">D</tspan><tspan x="9.6" y="0">E</tspan><tspan class="cls-5" x="15.13" y="0">A</tspan><tspan x="21.85" y="0">S </tspan><tspan class="cls-6" x="31.16" y="0">T</tspan><tspan x="36.13" y="0">AKING SHA</tspan><tspan class="cls-7" x="88.55" y="0">P</tspan><tspan x="94.71" y="0">E</tspan></text><polygon class="cls-8" points="166.66 90.59 166.66 147.37 215.84 118.98 215.84 62.21 166.66 90.59"/><polygon class="cls-9" points="0 62.47 49.17 34.08 98.34 62.47 49.17 90.86 0 62.47"/><polygon class="cls-10" points="107.5 192.4 58.32 164.01 58.33 220.79 107.5 249.18 107.5 192.4"/><polygon class="cls-11" points="215.84 129.75 122.27 183.77 122.27 183.87 107.5 192.4 107.5 249.18 205.84 192.4 205.84 192.3 215.84 186.52 215.84 129.75"/><polygon class="cls-12" points="201.05 53.67 201.11 53.64 108.2 0 59.03 28.39 68.38 33.79 68.33 33.82 166.66 90.6 215.84 62.21 201.05 53.67"/><polygon class="cls-13" points="49.17 215.49 49.17 204.41 49.17 107.83 49.17 90.86 0 62.47 0 79.44 0 187.1 49.17 215.49"/></svg>