<svg id="Layer_1" data-name="Layer 1" xmlns="http://www.w3.org/2000/svg" viewBox="0 0 347.06 137.24"><defs><style>.cls-1{fill:none;}.cls-2,.cls-5{isolation:isolate;font-family:Stellar-Regular, Stellar;}.cls-2{font-size:99.1px;fill:#2f6188;}.cls-3{letter-spacing:-0.03em;}.cls-4{letter-spacing:0em;}.cls-5{font-size:24.11px;fill:#e88338;}.cls-6{letter-spacing:-0.01em;}.cls-7{letter-spacing:-0.02em;}.cls-8{letter-spacing:-0.05em;}.cls-9{letter-spacing:-0.01em;}.cls-10{fill:#e88844;}.cls-11{fill:#42698e;}.cls-12{fill:#67a595;}.cls-13{fill:#7cb6a6;}.cls-14{fill:#eb9458;}.cls-15{fill:#26476e;}</style></defs><title>logo</title><g id="Layer_1-2" data-name="Layer 1"><rect class="cls-1" x="131.44" y="16.79" width="215.62" height="97.68"/><text class="cls-2" transform="translate(134.05 90.13)">B<tspan class="cls-3" x="55.4" y="0">L</tspan><tspan class="cls-4" x="93.45" y="0">OC</tspan></text><rect class="cls-1" x="130.16" y="106.86" width="215.62" height="20.44"/><text class="cls-5" transform="translate(138.29 124.7)">I<tspan class="cls-6" x="5.57" y="0">D</tspan><tspan x="18.9" y="0">E</tspan><tspan class="cls-7" x="29.77" y="0">A</tspan><tspan x="43.01" y="0">S </tspan><tspan class="cls-8" x="61.33" y="0">T</tspan><tspan x="71.12" y="0">AKING SHA</tspan><tspan class="cls-9" x="174.31" y="0">P</tspan><tspan x="186.43" y="0">E</tspan></text></g><g id="Layer_2" data-name="Layer 2"><polygon class="cls-10" points="91.8 49.9 91.8 81.17 118.88 65.53 118.88 34.26 91.8 49.9"/><polygon class="cls-11" points="0 34.41 27.08 18.77 54.16 34.41 27.08 50.04 0 34.41"/><polygon class="cls-12" points="59.2 105.97 32.12 90.33 32.12 121.6 59.2 137.24 59.2 105.97"/><polygon class="cls-13" points="118.88 71.46 67.34 101.22 67.34 101.27 59.2 105.97 59.2 137.24 113.37 105.97 113.37 105.91 118.88 102.73 118.88 71.46"/><polygon class="cls-14" points="110.73 29.56 110.77 29.54 59.59 0 32.51 15.63 37.66 18.61 37.63 18.63 91.79 49.9 118.88 34.26 110.73 29.56"/><polygon class="cls-15" points="27.08 118.69 27.08 112.58 27.08 59.39 27.08 50.04 0 34.41 0 43.75 0 103.05 27.08 118.69"/></g></svg>